<svg xmlns="http://www.w3.org/2000/svg" xmlns:xlink="http://www.w3.org/1999/xlink" fill="none" version="1.1" width="126" height="41" viewBox="0 0 126 41"><g><g><g><g><path d="M4.44089e-16,20.433999999999997Q7.55,12.724,8.38,12.123999999999999C9.72106,10.935459999999999,11.3415,10.106300000000001,13.09,9.714C16.6561,8.83848,20.4258,9.72329,23.23,12.094000000000001C24.2033,12.86364,25.0183,13.81448,25.63,14.894Q25.82,14.744,28.8,11.734C27.8783,10.52813,26.8399,9.41609,25.7,8.414C23.251,6.45748,20.2664,5.289436,17.14,5.0639959C13.911,4.770643,10.6708,5.49068,7.87,7.1240000000000006C5.52259,8.52435,3.56035,10.48658,2.16,12.834C1.50533,13.853,1.00964,14.96575,0.69,16.134C0.247343,17.525,0.0147808,18.9743,4.44089e-16,20.433999999999997Z" fill="#4D6DFB" fill-opacity="1" style="mix-blend-mode:passthrough"/></g><g><path d="M11.790000004172326,17.893998601379394Q13.710000004172326,15.793998601379394,15.880000004172325,15.893998601379394C18.360000004172324,16.033998601379395,19.020000004172324,16.993998601379396,19.490000004172327,17.533998601379395C20.060600004172326,18.190428601379395,20.453200004172324,18.982378601379395,20.630000004172324,19.833998601379395Q21.270000004172324,19.243998601379396,23.990000004172327,16.423998601379395C23.198700004172323,15.031258601379395,22.092500004172326,13.842938601379394,20.760000004172326,12.953998601379395C19.162500004172326,11.956370601379394,17.302100004172324,11.461659401379395,15.420000004172325,11.533996101379394C13.721900004172324,11.640035601379395,12.081000004172326,12.188155601379394,10.660000004172325,13.123998601379395C9.859340004172324,13.746678601379394,9.094770004172325,14.414418601379396,8.370000004172326,15.123998601379395Q7.690000004172325,15.833998601379395,0.23000000417232513,23.333958601379393Q0.6300000041723252,25.253958601379395,0.8100000041723251,25.743958601379397C1.0432730041723253,26.509358601379397,1.3444700041723252,27.252258601379395,1.7100000041723251,27.963958601379396Q1.860000004172325,27.833958601379393,11.790000004172326,17.893998601379394Z" fill="#4D6DFB" fill-opacity="1" style="mix-blend-mode:passthrough"/></g></g><g><g><path d="M31.5999999332428,21.283995628356934Q23.8299999332428,29.083995628356934,23.229999933242798,29.593995628356936C21.883899933242798,30.775065628356934,20.265399933242797,31.603195628356936,18.519999933242797,32.00399562835693C16.297199933242798,32.567895628356936,13.954899933242798,32.43519562835694,11.809999933242798,31.623995628356933C10.567269933242798,31.15735562835693,9.413859933242797,30.480865628356934,8.399999933242798,29.623995628356933C7.424309933242798,28.858065628356933,6.605949933242798,27.910675628356934,5.989999933242798,26.833995628356934Q5.799999933242798,26.973995628356935,2.819999933242798,29.993995628356934C3.739946933242798,31.198305628356934,4.778489933242798,32.307195628356936,5.9199999332427975,33.30399562835693C8.362489933242799,35.258395628356936,11.340109933242799,36.42649562835693,14.459999933242798,36.65399562835693C17.687699933242797,36.94699562835693,20.926799933242798,36.23069562835693,23.729999933242798,34.603995628356934C26.0696999332428,33.20239562835693,28.0301999332428,31.248715628356933,29.4399999332428,28.913995628356933C30.088499933242797,27.896535628356933,30.580599933242798,26.78752562835693,30.899999933242796,25.623995628356933C31.346199933242797,24.219795628356934,31.582099933242798,22.757275628356933,31.5999999332428,21.283995628356934Z" fill="#4D6DFB" fill-opacity="1" style="mix-blend-mode:passthrough"/></g><g><path d="M19.800000143051147,23.83399585723877C18.81860014305115,25.09099585723877,17.314730143051147,25.828195857238768,15.720000143051147,25.83399585723877C14.328770143051148,25.85959585723877,13.001030143051148,25.25279585723877,12.110000143051147,24.18399585723877C11.526500143051148,23.546585857238767,11.128780143051147,22.76150585723877,10.960000143051147,21.913995857238767Q10.320000143051148,22.50399585723877,7.6000001430511475,25.32399585723877C8.392455143051148,26.718595857238768,9.498210143051148,27.90999585723877,10.830000143051148,28.803995857238768C12.430600143051148,29.79359585723877,14.289510143051148,30.28439585723877,16.170000143051148,30.21399585723877C17.89350014305115,30.11069585723877,19.561000143051146,29.562995857238768,21.010000143051148,28.623995857238768C21.787500143051147,28.000195857238772,22.528700143051147,27.33239585723877,23.23000014305115,26.623995857238768Q23.910000143051146,25.96399585723877,31.410000143051146,18.42399585723877Q31.02000014305115,16.50399585723877,30.830000143051148,16.01399585723877C30.59620014305115,15.25031585723877,30.298500143051147,14.507688857238769,29.940000143051147,13.79399585723877Q29.740000143051148,13.903995857238769,19.800000143051147,23.83399585723877Z" fill="#4D6DFB" fill-opacity="1" style="mix-blend-mode:passthrough"/></g></g><g><path d="M56.0293,32L43.69531,32L43.69531,10.584L56.0293,10.584L56.0293,14.3047L48.23633,14.3047L48.23633,19.0068L55.4873,19.0068L55.4873,22.7275L48.23633,22.7275L48.23633,28.25L56.0293,28.25L56.0293,32ZM79.1387,26.0527Q79.1387,27.957,78.2158,29.3633Q77.293,30.7695,75.5278,31.5312Q73.7627,32.293,71.2432,32.293Q70.12989999999999,32.293,69.06790000000001,32.1465Q68.0059,32,67.0317,31.7144Q66.05760000000001,31.4287,65.17869999999999,31.0039L65.17869999999999,26.7852Q66.7021,27.459,68.3428,28.001Q69.9834,28.543,71.5947,28.543Q72.708,28.543,73.3892,28.25Q74.0703,27.957,74.3779,27.4443Q74.68549999999999,26.9316,74.68549999999999,26.2725Q74.68549999999999,25.4668,74.14359999999999,24.8955Q73.60159999999999,24.3242,72.6567,23.8262Q71.7119,23.3281,70.5254,22.7568Q69.7783,22.4053,68.8994,21.8999Q68.0205,21.3945,67.2295,20.6621Q66.4385,19.9297,65.9331,18.8823Q65.4277,17.835,65.4277,16.3701Q65.4277,14.4512,66.3066,13.0889Q67.1855,11.7266,68.8188,11.0015Q70.4521,10.2764,72.67869999999999,10.2764Q74.3486,10.2764,75.8647,10.6646Q77.3809,11.0527,79.0361,11.7852L77.57130000000001,15.3154Q76.0918,14.7148,74.9199,14.3853Q73.74799999999999,14.0557,72.5322,14.0557Q71.68260000000001,14.0557,71.082,14.3267Q70.48140000000001,14.5977,70.1738,15.0884Q69.86619999999999,15.5791,69.86619999999999,16.2236Q69.86619999999999,16.9854,70.313,17.5054Q70.7598,18.0254,71.6606,18.5088Q72.5615,18.9922,73.9092,19.6367Q75.5498,20.4131,76.7144,21.2554Q77.8789,22.0977,78.50880000000001,23.2329Q79.1387,24.3682,79.1387,26.0527ZM101.66210000000001,26.0527Q101.66210000000001,27.957,100.7393,29.3633Q99.8164,30.7695,98.0513,31.5312Q96.2861,32.293,93.7666,32.293Q92.6533,32.293,91.59129999999999,32.1465Q90.5293,32,89.5552,31.7144Q88.58109999999999,31.4287,87.7021,31.0039L87.7021,26.7852Q89.2256,27.459,90.86619999999999,28.001Q92.5068,28.543,94.1182,28.543Q95.23140000000001,28.543,95.9126,28.25Q96.5938,27.957,96.9014,27.4443Q97.209,26.9316,97.209,26.2725Q97.209,25.4668,96.667,24.8955Q96.125,24.3242,95.1802,23.8262Q94.2354,23.3281,93.0488,22.7568Q92.3018,22.4053,91.4229,21.8999Q90.54390000000001,21.3945,89.7529,20.6621Q88.9619,19.9297,88.4565,18.8823Q87.9512,17.835,87.9512,16.3701Q87.9512,14.4512,88.8301,13.0889Q89.709,11.7266,91.3423,11.0015Q92.9756,10.2764,95.2021,10.2764Q96.8721,10.2764,98.3882,10.6646Q99.9043,11.0527,101.5596,11.7852L100.0947,15.3154Q98.6152,14.7148,97.4434,14.3853Q96.2715,14.0557,95.0557,14.0557Q94.20609999999999,14.0557,93.6055,14.3267Q93.00489999999999,14.5977,92.6973,15.0884Q92.3896,15.5791,92.3896,16.2236Q92.3896,16.9854,92.8364,17.5054Q93.2832,18.0254,94.1841,18.5088Q95.08500000000001,18.9922,96.43260000000001,19.6367Q98.0732,20.4131,99.2378,21.2554Q100.4023,22.0977,101.0322,23.2329Q101.66210000000001,24.3682,101.66210000000001,26.0527ZM116.0117,32L111.5439,32L111.5439,10.584L123.8193,10.584L123.8193,14.3047L116.0117,14.3047L116.0117,19.8271L123.2773,19.8271L123.2773,23.5332L116.0117,23.5332L116.0117,32Z" fill="#4D6DFB" fill-opacity="1"/></g></g></g></svg>