<?xml version="1.0" encoding="utf-8"?>
<!-- Generator: Adobe Illustrator 16.0.0, SVG Export Plug-In . SVG Version: 6.00 Build 0)  -->
<!DOCTYPE svg PUBLIC "-//W3C//DTD SVG 1.0//EN" "http://www.w3.org/TR/2001/REC-SVG-20010904/DTD/svg10.dtd">
<svg version="1.0" id="Layer_1" xmlns="http://www.w3.org/2000/svg" xmlns:xlink="http://www.w3.org/1999/xlink" x="0px" y="0px"
	 width="163.333px" height="212.64px" viewBox="0 0 163.333 212.64" enable-background="new 0 0 163.333 212.64"
	 xml:space="preserve">
<g>
	<g>
		<path fill="#E31D1A" d="M38.259,143.165H8.547c-0.033,0-0.062,0.027-0.062,0.062v6.404c0,0.034,0.028,0.062,0.062,0.062h69.661
			c0.032,0,0.06-0.027,0.06-0.062v-6.404c0-0.034-0.028-0.062-0.06-0.062H48.272c-0.033,0-0.061-0.026-0.061-0.062v-4.072
			c0-0.034-0.028-0.062-0.062-0.062h-9.656c-0.035,0-0.062,0.024-0.063,0.059l-0.111,4.075
			C38.319,143.138,38.292,143.165,38.259,143.165z"/>
		<path fill="#E31D1A" d="M100.221,139.161l-1.57,3.979c-0.012,0.029-0.044,0.052-0.077,0.052H85.018
			c-0.045,0-0.082,0.036-0.082,0.083v6.169c0,0.044,0.029,0.081,0.075,0.081c0.975,0.005,11.15,0.062,11.176,0.167
			c0.027,0.107-7.72,19.861-8.374,21.529c-0.022,0.054,0.016,0.11,0.074,0.11c1.961,0.002,27.667,0.031,27.8,0.083
			c0.14,0.057,0.083,12.919-0.139,16.169c-0.22,3.22-3.332,4.477-6.201,4.579c-0.043,0.003-0.077,0.039-0.077,0.081v6.152
			c0,0.044,0.025,0.078,0.068,0.083c1.09,0.068,14.601,0.69,15.987-11.785c0,0,0.057-15.297,0.204-15.297
			c0.144,0,24.896-0.01,26.432-0.01c0.047,0,0.074-0.036,0.074-0.083v-6.152c0-0.046-0.027-0.083-0.074-0.083
			c-1.541-0.002-26.455-0.024-26.496-0.093c-0.039-0.071-0.046-8.403-0.046-9.299c0-0.047-0.037-0.076-0.083-0.076h-9.556
			c-0.046,0-0.083,0.029-0.083,0.076c0,0.896-0.002,9.242-0.057,9.313c-0.054,0.073-15.556,0.073-15.556-0.02
			s5.833-15.26,5.908-15.297c0.074-0.037,48.725,0.018,48.798-0.02c0.076-0.037,0.076-6.407,0-6.443
			c-0.073-0.039-46.206,0-46.206-0.057s1.445-4.038,1.425-4.046c-0.017-0.01-8.966,0-9.718,0
			C100.258,139.109,100.233,139.128,100.221,139.161z"/>
		<path fill="#E31D1A" d="M104.238,177.848c0.039-0.062-0.005-0.138-0.077-0.138c-1.344-0.015-10.303-0.122-10.355-0.054
			c-0.055,0.074-8.777,19.003-8.777,19.149s6.389,0.037,6.573,0.02C91.778,196.806,103.116,179.555,104.238,177.848z"/>
		<path fill="#E31D1A" d="M59.282,178.607c-0.041-0.061,0.003-0.137,0.076-0.137c1.345-0.015,10.302-0.122,10.355-0.054
			c0.055,0.073,8.389,18.243,8.389,18.39s-6.39,0.037-6.575,0.02C71.351,196.806,60.402,180.314,59.282,178.607z"/>
		<path fill="#E31D1A" d="M135.475,177.848c-0.039-0.062,0.005-0.138,0.076-0.138c1.344-0.015,10.303-0.122,10.354-0.054
			c0.054,0.074,8.777,19.003,8.777,19.149s-6.39,0.037-6.573,0.02C147.934,196.806,136.597,179.555,135.475,177.848z"/>
		<path fill="#E31D1A" d="M27.307,178.61c0.04-0.059-0.004-0.135-0.076-0.135c-1.344-0.015-10.302-0.122-10.354-0.054
			c-0.055,0.073-8.391,18.238-8.391,18.385s6.39,0.037,6.575,0.02C15.237,196.808,26.187,180.304,27.307,178.61z"/>
		<path fill="#E31D1A" d="M12.86,153.97v20.116c0,0.039,0.032,0.071,0.07,0.071l25.435,0.02c0.04,0,0.071,0.024,0.07,0.063
			c-0.005,0.975-0.061,12.784-0.061,13.046c0,0.274-0.309,4.913-6.185,4.741c-0.039-0.002-0.074,0.029-0.074,0.068v6.238
			c0,0.036,0.022,0.066,0.058,0.071c1.019,0.08,15.084,0.979,15.943-11.834c0-0.003,0-0.005,0-0.008v-12.318
			c0-0.039,0.032-0.068,0.07-0.068h25.533c0.039,0,0.07-0.032,0.07-0.071V153.97c0-0.039-0.031-0.071-0.07-0.071H12.93
			C12.892,153.899,12.86,153.931,12.86,153.97z M64.491,167.596H22.335c-0.039,0-0.071-0.029-0.071-0.068v-7.192
			c0-0.04,0.032-0.071,0.071-0.071h42.155c0.039,0,0.07,0.031,0.07,0.071v7.192C64.561,167.567,64.53,167.596,64.491,167.596z"/>
	</g>
	<g>
		<linearGradient id="SVGID_1_" gradientUnits="userSpaceOnUse" x1="118.6279" y1="23.4404" x2="37.8777" y2="113.1709">
			<stop  offset="0" style="stop-color:#FAFBFC"/>
			<stop  offset="0.1247" style="stop-color:#F2F2F4"/>
			<stop  offset="0.4" style="stop-color:#E4E2E7"/>
			<stop  offset="0.6216" style="stop-color:#DFDDE2"/>
		</linearGradient>
		<path fill="url(#SVGID_1_)" d="M155.646,38.229c-1.153,7.975-5.956,17.642-7.648,20.852c-0.339,0.665-0.715,1.316-1.116,1.943
			c-13.154,20.703-29.191,26.734-38.358,28.589c-0.062,0.013-0.112,0.025-0.175,0.038c-9.229,1.831-16.89,0.452-16.89,0.452
			c-24.765-3.285-41.88-16.689-49.053-24.138c-4.151-4.301-6.52-8.213-6.947-12.577c-0.087-0.89-0.101-1.806-0.025-2.746
			c0.038-0.389,0.088-0.79,0.151-1.204v-0.05c0.013-0.075,0.025-0.138,0.038-0.213c0.049-0.338,0.125-0.677,0.2-1.016
			c0.088-0.401,0.188-0.803,0.313-1.217c0.251-0.865,0.564-1.755,0.94-2.683c3.523-8.615,28.84-21.63,51.874-26.884
			c23.047-5.254,48.049-3.599,57.291,1.254C155.484,23.495,157.063,28.511,155.646,38.229z"/>
		<g>
			<linearGradient id="SVGID_2_" gradientUnits="userSpaceOnUse" x1="134.8169" y1="30.0132" x2="137.906" y2="18.6557">
				<stop  offset="0.2307" style="stop-color:#161718"/>
				<stop  offset="0.5259" style="stop-color:#313032"/>
				<stop  offset="0.8051" style="stop-color:#444244"/>
				<stop  offset="1" style="stop-color:#4B484A"/>
			</linearGradient>
			<path fill="url(#SVGID_2_)" d="M136.395,27.338c-7.635,0-11.839-1.245-11.839-3.506c0-1.425,2.175-5.491,11.839-5.491
				c10.264,0,12.362,3.527,12.362,4.472C148.756,23.972,145.713,27.338,136.395,27.338z"/>
			<path fill="#343232" d="M136.395,18.465c10.16,0,12.237,3.429,12.237,4.347c0,1.128-3.013,4.4-12.237,4.4
				c-7.445,0-11.714-1.232-11.714-3.381C124.68,22.439,126.833,18.465,136.395,18.465 M136.395,18.215
				c-9.222,0-11.964,3.788-11.964,5.616c0,2.612,5.168,3.631,11.964,3.631c9.273,0,12.487-3.352,12.487-4.65
				C148.881,21.515,146.242,18.215,136.395,18.215L136.395,18.215z"/>
		</g>
		<g>
			<path fill="#333030" d="M125.007,64.898c-2.001,0-4.117-0.078-6.289-0.23c-16.035-1.128-26.338-10.735-29.725-13.892
				c-0.238-0.222-0.445-0.415-0.621-0.575c-2.017-1.831-1.98-2.99-1.871-3.403c0.102-0.385,0.392-0.666,0.776-0.751
				c0.118-0.026,0.214-0.039,0.303-0.039c0.601,0,1.22,0.607,3.522,2.864c0.732,0.718,1.635,1.603,2.761,2.688
				c4.871,4.693,14.267,10.288,31.362,10.288c0.47,0,0.945-0.004,1.426-0.013c14.447-0.263,21.077-4.621,22.82-6l-2.044,4.037
				C143.79,62,137.449,64.898,125.007,64.898C125.007,64.898,125.007,64.898,125.007,64.898z"/>
			<path fill="#161313" d="M87.581,46.134L87.581,46.134c0.55,0,1.219,0.656,3.436,2.828c0.732,0.718,1.635,1.603,2.762,2.688
				c4.888,4.709,14.311,10.323,31.449,10.323c0.471,0,0.946-0.004,1.428-0.013c13.589-0.247,20.175-3.999,22.446-5.669l-1.751,3.458
				c-3.683,2.168-10,5.024-22.342,5.024c-1.998,0-4.111-0.077-6.28-0.23c-15.991-1.125-26.27-10.709-29.648-13.859
				c-0.238-0.222-0.446-0.416-0.622-0.575c-1.966-1.785-1.938-2.888-1.834-3.279c0.091-0.344,0.34-0.585,0.682-0.661
				C87.414,46.145,87.501,46.134,87.581,46.134 M87.581,45.884c-0.106,0-0.213,0.016-0.33,0.042
				c-1.058,0.235-1.724,1.861,1.038,4.369c2.763,2.508,13.251,13.291,30.42,14.499c2.255,0.159,4.352,0.23,6.298,0.23
				c12.796,0,19.167-3.105,22.532-5.096l2.328-4.596c0,0-5.976,6.065-23.217,6.378c-0.48,0.009-0.954,0.013-1.423,0.013
				c-16.377,0-26.076-5.244-31.275-10.253C89.193,46.886,88.435,45.884,87.581,45.884L87.581,45.884z"/>
		</g>
		<g>
			<linearGradient id="SVGID_3_" gradientUnits="userSpaceOnUse" x1="86.833" y1="35.7603" x2="93.2443" y2="28.1759">
				<stop  offset="0.2255" style="stop-color:#161718"/>
				<stop  offset="0.3903" style="stop-color:#313032"/>
				<stop  offset="0.5461" style="stop-color:#444244"/>
				<stop  offset="0.6549" style="stop-color:#4B484A"/>
			</linearGradient>
			<path fill="url(#SVGID_3_)" d="M89.452,36.246c-2.17,0-4.003-1.737-4.003-3.793c0-2.162,2.048-3.454,4.028-3.454
				c2.021,0,4.186,1.456,4.186,3.624S91.485,36.246,89.452,36.246z"/>
			<path fill="#2D2B2B" d="M89.477,29.124c1.961,0,4.061,1.406,4.061,3.499s-2.113,3.499-4.086,3.499
				c-2.102,0-3.878-1.68-3.878-3.668C85.574,30.369,87.558,29.124,89.477,29.124 M89.477,28.874c-2.164,0-4.153,1.415-4.153,3.579
				c0,2.164,1.963,3.918,4.128,3.918c2.164,0,4.336-1.584,4.336-3.749S91.642,28.874,89.477,28.874L89.477,28.874z"/>
		</g>
		<path fill="#BE2120" d="M108.45,92.084c-4.276,3.687-17.579,1.155-17.692,1.079c-0.112-0.075,0.702-3.06,0.702-3.06
			s7.661,1.379,16.89-0.452L108.45,92.084z"/>
		<path fill="#DFDFE5" d="M81.379,109.281c0,0-8.373,3.122-9.235-5.93c0,0-2.665,9.208,6.387,10.384L81.379,109.281z"/>
		<path fill="#EFF0F4" d="M37.078,44.26c-0.376,0.927-0.689,1.818-0.94,2.683c-0.125,0.414-0.226,0.815-0.313,1.217
			c-0.076,0.338-0.151,0.677-0.2,1.016c-0.013,0.075-0.025,0.138-0.038,0.213v0.05c-0.063,0.414-0.113,0.815-0.151,1.204
			c-0.075,0.94-0.062,1.856,0.025,2.746l-0.012,0.025l-2.521-1.367c1.718,4.752,1.091,13.429-0.577,17.342
			c-1.68,3.924-8.263,7.573-12.539,9.667c-1.843,0.902-3.687,1.479-5.404,1.555c-2.27,0.112-4.338-0.652-5.931-2.709
			c-2.833-3.598-0.063-9.341,0.878-11.385c0.94-2.032,4.338-7.11,6.847-14.145c2.508-7.046,1.366-10.521,4.602-13.342
			s7.837,0.214,9.981,1.304C32.927,41.439,37.078,44.26,37.078,44.26z"/>
		<linearGradient id="SVGID_4_" gradientUnits="userSpaceOnUse" x1="23.5884" y1="70.9409" x2="32.3662" y2="36.7298">
			<stop  offset="0" style="stop-color:#D7D7DB"/>
			<stop  offset="0.3064" style="stop-color:#CDCDD1"/>
			<stop  offset="0.6401" style="stop-color:#C9C9CC"/>
		</linearGradient>
		<path fill="url(#SVGID_4_)" d="M32.99,52.223c1.643,4.777,1.003,13.304-0.64,17.166c-1.68,3.924-8.263,7.573-12.539,9.667
			c-1.843,0.902-3.687,1.479-5.404,1.555c-1.881-3.586,0.815-10.759,5.605-22.507c2.333-5.718,3.223-9.756,3.561-12.427l9.354,6.37
			C32.952,52.109,32.965,52.16,32.99,52.223z"/>
		<polygon fill="#D7D7DA" points="33.065,52.122 35.46,53.388 35.448,53.414 		"/>
		<path fill="#D7D7DA" d="M35.585,49.388v0.05l-0.702-0.577C35.322,49.188,35.585,49.388,35.585,49.388z"/>
		<path fill="#E3E3E8" d="M108.45,92.084v37.003h-4.063c-2.558-13.178-4.063-15.034-6.382-15.034c-2.283,0-4.552,5.881-6.006,10.231
			c-0.84,2.546-1.417,4.564-1.555,4.564c-0.364,0-3.448,0-3.599-0.113c-0.113-0.063,0.138-6.532,0.301-10.345v-0.024
			c0.05-1.217,0.087-2.157,0.1-2.521c0.012-0.087-0.063-0.175-0.15-0.148c-4.063,1.04-13.756,12.752-14.194,13.24
			c-0.013,0.013-0.013,0.013-0.013,0.013c-0.163,0.162-3.135,0.213-3.235,0c0-0.401,21.104-35.787,21.104-35.787
			C90.871,93.239,104.174,95.771,108.45,92.084z"/>
		<linearGradient id="SVGID_5_" gradientUnits="userSpaceOnUse" x1="76.106" y1="127.3794" x2="88.9611" y2="108.9137">
			<stop  offset="0" style="stop-color:#E0E0E6"/>
			<stop  offset="0.7406" style="stop-color:#D0D0D4"/>
			<stop  offset="1" style="stop-color:#C9C9CD"/>
		</linearGradient>
		<path fill="url(#SVGID_5_)" d="M87.146,118.367c0.05-1.217,0.087-2.157,0.1-2.521c0.012-0.087-0.063-0.175-0.15-0.148
			c-4.063,1.04-13.756,12.752-14.194,13.24c0.25-0.577,8.401-18.847,11.737-19.009C87.247,109.815,87.485,114.542,87.146,118.367z"
			/>
		<linearGradient id="SVGID_6_" gradientUnits="userSpaceOnUse" x1="92.0151" y1="120.0186" x2="106.4363" y2="119.4676">
			<stop  offset="0" style="stop-color:#E0E0E6"/>
			<stop  offset="0.2857" style="stop-color:#CFCFD4"/>
			<stop  offset="0.4909" style="stop-color:#C9C9CD"/>
			<stop  offset="1" style="stop-color:#DFDFE5"/>
		</linearGradient>
		<path fill="url(#SVGID_6_)" d="M106.431,129.087h-2.043c-2.558-13.178-4.063-15.034-6.382-15.034
			c-2.283,0-4.552,5.881-6.006,10.231c0.89-8.765,5.417-14.332,8.313-14.194C103.609,110.241,106.431,129.087,106.431,129.087z"/>
		<linearGradient id="SVGID_7_" gradientUnits="userSpaceOnUse" x1="35.1421" y1="50.2856" x2="27.3833" y2="46.0536">
			<stop  offset="0" style="stop-color:#DFE0E5"/>
			<stop  offset="0.2544" style="stop-color:#DDDDE1"/>
			<stop  offset="0.816" style="stop-color:#DBDADC"/>
		</linearGradient>
		<path fill="url(#SVGID_7_)" d="M35.46,53.388l-2.395-1.266l-0.139-0.075l-9.354-6.37c0.389-2.997,0.113-4.288,0.477-4.338
			c0.589-0.101,8.414,5.718,10.834,7.523l0.702,0.577c-0.063,0.414-0.113,0.815-0.151,1.204
			C35.359,51.583,35.373,52.498,35.46,53.388z"/>
		<path fill="#D7D7DA" d="M35.585,49.438l-0.125,3.95c-0.087-0.89-0.101-1.806-0.025-2.746
			C35.473,50.253,35.523,49.853,35.585,49.438z"/>
	</g>
</g>
</svg>
